<mxfile host="app.diagrams.net" modified="2024-04-23T08:21:47.332Z" agent="Mozilla/5.0 (Windows NT 10.0; Win64; x64) AppleWebKit/537.36 (KHTML, like Gecko) Chrome/124.0.0.0 Safari/537.36" etag="8aEQIkG8Ps0LuodsXiIL" version="24.2.7" type="github">
  <diagram name="Page-1" id="z7e0Jf43Eca83nyhEx7l">
    <mxGraphModel dx="2625" dy="1305" grid="1" gridSize="10" guides="1" tooltips="1" connect="1" arrows="1" fold="1" page="1" pageScale="1" pageWidth="850" pageHeight="1100" math="0" shadow="0">
      <root>
        <mxCell id="0" />
        <mxCell id="1" parent="0" />
        <mxCell id="QkR3hnECUOmhi_xK6HSF-3" value="" style="rounded=0;whiteSpace=wrap;html=1;container=0;" parent="1" vertex="1">
          <mxGeometry x="70" y="1192" width="370" height="730" as="geometry" />
        </mxCell>
        <mxCell id="QkR3hnECUOmhi_xK6HSF-4" value="" style="rounded=0;whiteSpace=wrap;html=1;container=0;" parent="1" vertex="1">
          <mxGeometry x="80" y="1207" width="350" height="510" as="geometry" />
        </mxCell>
        <mxCell id="QkR3hnECUOmhi_xK6HSF-5" value="ATTACK" style="rounded=0;whiteSpace=wrap;html=1;fontSize=30;container=0;" parent="1" vertex="1">
          <mxGeometry x="175" y="1787" width="160" height="60" as="geometry" />
        </mxCell>
        <mxCell id="QkR3hnECUOmhi_xK6HSF-6" value="SWITCH MODE" style="rounded=0;whiteSpace=wrap;html=1;fontSize=30;container=0;" parent="1" vertex="1">
          <mxGeometry x="125" y="1857" width="260" height="60" as="geometry" />
        </mxCell>
        <mxCell id="QkR3hnECUOmhi_xK6HSF-7" value="ATK / 10000" style="rounded=0;whiteSpace=wrap;html=1;fontSize=25;container=0;" parent="1" vertex="1">
          <mxGeometry x="80" y="1722" width="170" height="40" as="geometry" />
        </mxCell>
        <mxCell id="QkR3hnECUOmhi_xK6HSF-8" value="DEF / 10000" style="rounded=0;whiteSpace=wrap;html=1;fontSize=25;container=0;" parent="1" vertex="1">
          <mxGeometry x="260" y="1722" width="170" height="40" as="geometry" />
        </mxCell>
        <mxCell id="12l4u41IAlyLC1k91Qik-38" value="" style="group" vertex="1" connectable="0" parent="1">
          <mxGeometry width="1536" height="864" as="geometry" />
        </mxCell>
        <mxCell id="yShDVyeZ53WpqZu7RZC7-21" value="" style="rounded=0;whiteSpace=wrap;html=1;container=0;" parent="12l4u41IAlyLC1k91Qik-38" vertex="1">
          <mxGeometry width="1536" height="864" as="geometry" />
        </mxCell>
        <mxCell id="yShDVyeZ53WpqZu7RZC7-68" value="" style="rounded=0;whiteSpace=wrap;html=1;container=0;" parent="12l4u41IAlyLC1k91Qik-38" vertex="1">
          <mxGeometry x="18" y="57" width="370" height="730" as="geometry" />
        </mxCell>
        <mxCell id="yShDVyeZ53WpqZu7RZC7-69" value="" style="rounded=0;whiteSpace=wrap;html=1;container=0;" parent="12l4u41IAlyLC1k91Qik-38" vertex="1">
          <mxGeometry x="28" y="72" width="350" height="510" as="geometry" />
        </mxCell>
        <mxCell id="yShDVyeZ53WpqZu7RZC7-70" value="ATTACK" style="rounded=0;whiteSpace=wrap;html=1;fontSize=30;container=0;" parent="12l4u41IAlyLC1k91Qik-38" vertex="1">
          <mxGeometry x="123" y="652" width="160" height="60" as="geometry" />
        </mxCell>
        <mxCell id="yShDVyeZ53WpqZu7RZC7-71" value="Standby" style="rounded=0;whiteSpace=wrap;html=1;fontSize=30;container=0;" parent="12l4u41IAlyLC1k91Qik-38" vertex="1">
          <mxGeometry x="1205" y="347" width="200" height="60" as="geometry" />
        </mxCell>
        <mxCell id="yShDVyeZ53WpqZu7RZC7-72" value="SWITCH MODE" style="rounded=0;whiteSpace=wrap;html=1;fontSize=30;container=0;" parent="12l4u41IAlyLC1k91Qik-38" vertex="1">
          <mxGeometry x="73" y="722" width="260" height="60" as="geometry" />
        </mxCell>
        <mxCell id="yShDVyeZ53WpqZu7RZC7-73" value="Main 1" style="rounded=0;whiteSpace=wrap;html=1;fontSize=30;container=0;" parent="12l4u41IAlyLC1k91Qik-38" vertex="1">
          <mxGeometry x="1205" y="407" width="200" height="60" as="geometry" />
        </mxCell>
        <mxCell id="yShDVyeZ53WpqZu7RZC7-74" value="Battle" style="rounded=0;whiteSpace=wrap;html=1;fontSize=30;container=0;" parent="12l4u41IAlyLC1k91Qik-38" vertex="1">
          <mxGeometry x="1205" y="467" width="200" height="60" as="geometry" />
        </mxCell>
        <mxCell id="yShDVyeZ53WpqZu7RZC7-75" value="Main 2" style="rounded=0;whiteSpace=wrap;html=1;fontSize=30;container=0;" parent="12l4u41IAlyLC1k91Qik-38" vertex="1">
          <mxGeometry x="1205" y="527" width="200" height="60" as="geometry" />
        </mxCell>
        <mxCell id="yShDVyeZ53WpqZu7RZC7-76" value="Draw" style="rounded=0;whiteSpace=wrap;html=1;fontSize=30;container=0;" parent="12l4u41IAlyLC1k91Qik-38" vertex="1">
          <mxGeometry x="1205" y="280" width="200" height="67" as="geometry" />
        </mxCell>
        <mxCell id="yShDVyeZ53WpqZu7RZC7-77" value="Next Phase/Turn&lt;div&gt;Draw Card&lt;/div&gt;" style="rounded=0;whiteSpace=wrap;html=1;fontSize=30;container=0;" parent="12l4u41IAlyLC1k91Qik-38" vertex="1">
          <mxGeometry x="1205" y="587" width="260" height="60" as="geometry" />
        </mxCell>
        <mxCell id="yShDVyeZ53WpqZu7RZC7-78" value="Turn:&amp;nbsp;" style="rounded=0;whiteSpace=wrap;html=1;fontSize=30;container=0;" parent="12l4u41IAlyLC1k91Qik-38" vertex="1">
          <mxGeometry x="1205" y="227" width="260" height="60" as="geometry" />
        </mxCell>
        <mxCell id="yShDVyeZ53WpqZu7RZC7-79" value="PHASE" style="rounded=0;whiteSpace=wrap;html=1;rotation=90;fontSize=30;container=0;" parent="12l4u41IAlyLC1k91Qik-38" vertex="1">
          <mxGeometry x="1285" y="407" width="300" height="60" as="geometry" />
        </mxCell>
        <mxCell id="yShDVyeZ53WpqZu7RZC7-80" value="Music" style="rounded=0;whiteSpace=wrap;html=1;fontSize=30;container=0;" parent="12l4u41IAlyLC1k91Qik-38" vertex="1">
          <mxGeometry y="804" width="98" height="60" as="geometry" />
        </mxCell>
        <mxCell id="yShDVyeZ53WpqZu7RZC7-81" value="ATK / 10000" style="rounded=0;whiteSpace=wrap;html=1;fontSize=25;container=0;" parent="12l4u41IAlyLC1k91Qik-38" vertex="1">
          <mxGeometry x="28" y="587" width="170" height="40" as="geometry" />
        </mxCell>
        <mxCell id="yShDVyeZ53WpqZu7RZC7-82" value="DEF / 10000" style="rounded=0;whiteSpace=wrap;html=1;fontSize=25;container=0;" parent="12l4u41IAlyLC1k91Qik-38" vertex="1">
          <mxGeometry x="208" y="587" width="170" height="40" as="geometry" />
        </mxCell>
        <mxCell id="yShDVyeZ53WpqZu7RZC7-83" value="" style="rounded=0;whiteSpace=wrap;html=1;container=0;" parent="12l4u41IAlyLC1k91Qik-38" vertex="1">
          <mxGeometry x="1176" width="360" height="140" as="geometry" />
        </mxCell>
        <mxCell id="yShDVyeZ53WpqZu7RZC7-84" value="LP: 8000" style="rounded=0;whiteSpace=wrap;html=1;fontSize=50;container=0;" parent="12l4u41IAlyLC1k91Qik-38" vertex="1">
          <mxGeometry x="1176" y="60" width="220" height="70" as="geometry" />
        </mxCell>
        <mxCell id="yShDVyeZ53WpqZu7RZC7-85" value="" style="rounded=0;whiteSpace=wrap;html=1;fontSize=30;container=0;" parent="12l4u41IAlyLC1k91Qik-38" vertex="1">
          <mxGeometry x="1176" width="220" height="60" as="geometry" />
        </mxCell>
        <mxCell id="yShDVyeZ53WpqZu7RZC7-86" value="Picture" style="whiteSpace=wrap;html=1;aspect=fixed;fontSize=30;container=0;" parent="12l4u41IAlyLC1k91Qik-38" vertex="1">
          <mxGeometry x="1396" width="140" height="140" as="geometry" />
        </mxCell>
        <mxCell id="yShDVyeZ53WpqZu7RZC7-87" value="LP: 8000" style="rounded=0;whiteSpace=wrap;html=1;fontSize=50;container=0;" parent="12l4u41IAlyLC1k91Qik-38" vertex="1">
          <mxGeometry x="1176" y="724" width="220" height="80" as="geometry" />
        </mxCell>
        <mxCell id="yShDVyeZ53WpqZu7RZC7-88" value="" style="rounded=0;whiteSpace=wrap;html=1;fontSize=30;container=0;" parent="12l4u41IAlyLC1k91Qik-38" vertex="1">
          <mxGeometry x="1176" y="804" width="220" height="60" as="geometry" />
        </mxCell>
        <mxCell id="yShDVyeZ53WpqZu7RZC7-89" value="Picture" style="whiteSpace=wrap;html=1;aspect=fixed;fontSize=30;container=0;" parent="12l4u41IAlyLC1k91Qik-38" vertex="1">
          <mxGeometry x="1396" y="724" width="140" height="140" as="geometry" />
        </mxCell>
        <mxCell id="yShDVyeZ53WpqZu7RZC7-113" value="" style="rounded=0;whiteSpace=wrap;html=1;container=0;" parent="12l4u41IAlyLC1k91Qik-38" vertex="1">
          <mxGeometry width="120" height="40" as="geometry" />
        </mxCell>
        <mxCell id="yShDVyeZ53WpqZu7RZC7-37" value="" style="rounded=0;whiteSpace=wrap;html=1;container=0;" parent="12l4u41IAlyLC1k91Qik-38" vertex="1">
          <mxGeometry x="1176" width="360" height="140" as="geometry" />
        </mxCell>
        <mxCell id="yShDVyeZ53WpqZu7RZC7-39" value="" style="rounded=0;whiteSpace=wrap;html=1;fontSize=30;container=0;" parent="12l4u41IAlyLC1k91Qik-38" vertex="1">
          <mxGeometry x="1176" width="220" height="60" as="geometry" />
        </mxCell>
        <mxCell id="yShDVyeZ53WpqZu7RZC7-40" value="Picture" style="whiteSpace=wrap;html=1;aspect=fixed;fontSize=30;container=0;" parent="12l4u41IAlyLC1k91Qik-38" vertex="1">
          <mxGeometry x="1396" width="140" height="140" as="geometry" />
        </mxCell>
        <mxCell id="yShDVyeZ53WpqZu7RZC7-67" value="" style="rounded=0;whiteSpace=wrap;html=1;container=0;" parent="12l4u41IAlyLC1k91Qik-38" vertex="1">
          <mxGeometry width="120" height="40" as="geometry" />
        </mxCell>
        <mxCell id="12l4u41IAlyLC1k91Qik-37" value="" style="group" vertex="1" connectable="0" parent="12l4u41IAlyLC1k91Qik-38">
          <mxGeometry x="393" y="12" width="750" height="840" as="geometry" />
        </mxCell>
        <mxCell id="QkR3hnECUOmhi_xK6HSF-2" value="" style="rounded=0;whiteSpace=wrap;html=1;container=0;" parent="12l4u41IAlyLC1k91Qik-37" vertex="1">
          <mxGeometry width="750" height="840" as="geometry" />
        </mxCell>
        <mxCell id="12l4u41IAlyLC1k91Qik-36" value="" style="group" vertex="1" connectable="0" parent="12l4u41IAlyLC1k91Qik-37">
          <mxGeometry width="750" height="840" as="geometry" />
        </mxCell>
        <mxCell id="QkR3hnECUOmhi_xK6HSF-31" value="" style="rounded=0;whiteSpace=wrap;html=1;container=0;" parent="12l4u41IAlyLC1k91Qik-36" vertex="1">
          <mxGeometry x="15" y="175" width="720" height="490" as="geometry" />
        </mxCell>
        <mxCell id="QkR3hnECUOmhi_xK6HSF-32" value="" style="rounded=0;whiteSpace=wrap;html=1;container=0;" parent="12l4u41IAlyLC1k91Qik-36" vertex="1">
          <mxGeometry x="25" y="185" width="70" height="100" as="geometry" />
        </mxCell>
        <mxCell id="QkR3hnECUOmhi_xK6HSF-33" value="40" style="rounded=0;whiteSpace=wrap;html=1;fontSize=30;container=0;" parent="12l4u41IAlyLC1k91Qik-36" vertex="1">
          <mxGeometry x="655" y="195" width="70" height="70" as="geometry" />
        </mxCell>
        <mxCell id="QkR3hnECUOmhi_xK6HSF-34" value="" style="rounded=0;whiteSpace=wrap;html=1;container=0;" parent="12l4u41IAlyLC1k91Qik-36" vertex="1">
          <mxGeometry x="655" y="185" width="70" height="100" as="geometry" />
        </mxCell>
        <mxCell id="QkR3hnECUOmhi_xK6HSF-35" value="" style="rounded=0;whiteSpace=wrap;html=1;container=0;" parent="12l4u41IAlyLC1k91Qik-36" vertex="1">
          <mxGeometry x="120" y="185" width="70" height="100" as="geometry" />
        </mxCell>
        <mxCell id="QkR3hnECUOmhi_xK6HSF-36" value="" style="rounded=0;whiteSpace=wrap;html=1;container=0;" parent="12l4u41IAlyLC1k91Qik-36" vertex="1">
          <mxGeometry x="230" y="185" width="70" height="100" as="geometry" />
        </mxCell>
        <mxCell id="QkR3hnECUOmhi_xK6HSF-37" value="" style="rounded=0;whiteSpace=wrap;html=1;container=0;" parent="12l4u41IAlyLC1k91Qik-36" vertex="1">
          <mxGeometry x="340" y="185" width="70" height="100" as="geometry" />
        </mxCell>
        <mxCell id="QkR3hnECUOmhi_xK6HSF-38" value="" style="rounded=0;whiteSpace=wrap;html=1;container=0;" parent="12l4u41IAlyLC1k91Qik-36" vertex="1">
          <mxGeometry x="450" y="185" width="70" height="100" as="geometry" />
        </mxCell>
        <mxCell id="QkR3hnECUOmhi_xK6HSF-39" value="" style="rounded=0;whiteSpace=wrap;html=1;container=0;" parent="12l4u41IAlyLC1k91Qik-36" vertex="1">
          <mxGeometry x="560" y="185" width="70" height="100" as="geometry" />
        </mxCell>
        <mxCell id="QkR3hnECUOmhi_xK6HSF-40" value="" style="rounded=0;whiteSpace=wrap;html=1;container=0;" parent="12l4u41IAlyLC1k91Qik-36" vertex="1">
          <mxGeometry x="25" y="295" width="70" height="100" as="geometry" />
        </mxCell>
        <mxCell id="QkR3hnECUOmhi_xK6HSF-41" value="" style="rounded=0;whiteSpace=wrap;html=1;container=0;" parent="12l4u41IAlyLC1k91Qik-36" vertex="1">
          <mxGeometry x="655" y="295" width="70" height="100" as="geometry" />
        </mxCell>
        <mxCell id="QkR3hnECUOmhi_xK6HSF-42" value="" style="rounded=0;whiteSpace=wrap;html=1;container=0;" parent="12l4u41IAlyLC1k91Qik-36" vertex="1">
          <mxGeometry x="120" y="295" width="70" height="100" as="geometry" />
        </mxCell>
        <mxCell id="QkR3hnECUOmhi_xK6HSF-43" value="" style="rounded=0;whiteSpace=wrap;html=1;container=0;" parent="12l4u41IAlyLC1k91Qik-36" vertex="1">
          <mxGeometry x="230" y="295" width="70" height="100" as="geometry" />
        </mxCell>
        <mxCell id="QkR3hnECUOmhi_xK6HSF-44" value="" style="rounded=0;whiteSpace=wrap;html=1;container=0;" parent="12l4u41IAlyLC1k91Qik-36" vertex="1">
          <mxGeometry x="340" y="295" width="70" height="100" as="geometry" />
        </mxCell>
        <mxCell id="QkR3hnECUOmhi_xK6HSF-45" value="" style="rounded=0;whiteSpace=wrap;html=1;container=0;" parent="12l4u41IAlyLC1k91Qik-36" vertex="1">
          <mxGeometry x="450" y="295" width="70" height="100" as="geometry" />
        </mxCell>
        <mxCell id="QkR3hnECUOmhi_xK6HSF-46" value="" style="rounded=0;whiteSpace=wrap;html=1;container=0;" parent="12l4u41IAlyLC1k91Qik-36" vertex="1">
          <mxGeometry x="560" y="295" width="70" height="100" as="geometry" />
        </mxCell>
        <mxCell id="QkR3hnECUOmhi_xK6HSF-47" value="" style="rounded=0;whiteSpace=wrap;html=1;container=0;" parent="12l4u41IAlyLC1k91Qik-36" vertex="1">
          <mxGeometry x="545" y="310" width="100" height="70" as="geometry" />
        </mxCell>
        <mxCell id="QkR3hnECUOmhi_xK6HSF-48" value="" style="rounded=0;whiteSpace=wrap;html=1;container=0;" parent="12l4u41IAlyLC1k91Qik-36" vertex="1">
          <mxGeometry x="215" y="310" width="100" height="70" as="geometry" />
        </mxCell>
        <mxCell id="QkR3hnECUOmhi_xK6HSF-49" value="" style="rounded=0;whiteSpace=wrap;html=1;container=0;" parent="12l4u41IAlyLC1k91Qik-36" vertex="1">
          <mxGeometry x="435" y="310" width="100" height="70" as="geometry" />
        </mxCell>
        <mxCell id="QkR3hnECUOmhi_xK6HSF-50" value="" style="rounded=0;whiteSpace=wrap;html=1;container=0;" parent="12l4u41IAlyLC1k91Qik-36" vertex="1">
          <mxGeometry x="325" y="310" width="100" height="70" as="geometry" />
        </mxCell>
        <mxCell id="QkR3hnECUOmhi_xK6HSF-51" value="" style="rounded=0;whiteSpace=wrap;html=1;container=0;" parent="12l4u41IAlyLC1k91Qik-36" vertex="1">
          <mxGeometry x="105" y="310" width="100" height="70" as="geometry" />
        </mxCell>
        <mxCell id="QkR3hnECUOmhi_xK6HSF-52" value="" style="rounded=0;whiteSpace=wrap;html=1;container=0;" parent="12l4u41IAlyLC1k91Qik-36" vertex="1">
          <mxGeometry x="25" y="215" width="70" height="40" as="geometry" />
        </mxCell>
        <mxCell id="QkR3hnECUOmhi_xK6HSF-53" value="" style="rounded=0;whiteSpace=wrap;html=1;container=0;" parent="12l4u41IAlyLC1k91Qik-36" vertex="1">
          <mxGeometry x="15" y="415" width="720" height="10" as="geometry" />
        </mxCell>
        <mxCell id="QkR3hnECUOmhi_xK6HSF-54" value="" style="rounded=0;whiteSpace=wrap;html=1;container=0;" parent="12l4u41IAlyLC1k91Qik-36" vertex="1">
          <mxGeometry x="25" y="555" width="70" height="100" as="geometry" />
        </mxCell>
        <mxCell id="QkR3hnECUOmhi_xK6HSF-55" value="40" style="rounded=0;whiteSpace=wrap;html=1;fontSize=30;container=0;" parent="12l4u41IAlyLC1k91Qik-36" vertex="1">
          <mxGeometry x="655" y="565" width="70" height="70" as="geometry" />
        </mxCell>
        <mxCell id="QkR3hnECUOmhi_xK6HSF-56" value="" style="rounded=0;whiteSpace=wrap;html=1;container=0;" parent="12l4u41IAlyLC1k91Qik-36" vertex="1">
          <mxGeometry x="655" y="555" width="70" height="100" as="geometry" />
        </mxCell>
        <mxCell id="QkR3hnECUOmhi_xK6HSF-57" value="" style="rounded=0;whiteSpace=wrap;html=1;container=0;" parent="12l4u41IAlyLC1k91Qik-36" vertex="1">
          <mxGeometry x="120" y="555" width="70" height="100" as="geometry" />
        </mxCell>
        <mxCell id="QkR3hnECUOmhi_xK6HSF-58" value="" style="rounded=0;whiteSpace=wrap;html=1;container=0;" parent="12l4u41IAlyLC1k91Qik-36" vertex="1">
          <mxGeometry x="230" y="555" width="70" height="100" as="geometry" />
        </mxCell>
        <mxCell id="QkR3hnECUOmhi_xK6HSF-59" value="" style="rounded=0;whiteSpace=wrap;html=1;container=0;" parent="12l4u41IAlyLC1k91Qik-36" vertex="1">
          <mxGeometry x="340" y="555" width="70" height="100" as="geometry" />
        </mxCell>
        <mxCell id="QkR3hnECUOmhi_xK6HSF-60" value="" style="rounded=0;whiteSpace=wrap;html=1;container=0;" parent="12l4u41IAlyLC1k91Qik-36" vertex="1">
          <mxGeometry x="450" y="555" width="70" height="100" as="geometry" />
        </mxCell>
        <mxCell id="QkR3hnECUOmhi_xK6HSF-61" value="" style="rounded=0;whiteSpace=wrap;html=1;container=0;" parent="12l4u41IAlyLC1k91Qik-36" vertex="1">
          <mxGeometry x="560" y="555" width="70" height="100" as="geometry" />
        </mxCell>
        <mxCell id="QkR3hnECUOmhi_xK6HSF-62" value="" style="rounded=0;whiteSpace=wrap;html=1;container=0;" parent="12l4u41IAlyLC1k91Qik-36" vertex="1">
          <mxGeometry x="655" y="445" width="70" height="100" as="geometry" />
        </mxCell>
        <mxCell id="QkR3hnECUOmhi_xK6HSF-63" value="" style="rounded=0;whiteSpace=wrap;html=1;container=0;" parent="12l4u41IAlyLC1k91Qik-36" vertex="1">
          <mxGeometry x="25" y="445" width="70" height="100" as="geometry" />
        </mxCell>
        <mxCell id="QkR3hnECUOmhi_xK6HSF-64" value="" style="rounded=0;whiteSpace=wrap;html=1;container=0;" parent="12l4u41IAlyLC1k91Qik-36" vertex="1">
          <mxGeometry x="105" y="460" width="100" height="70" as="geometry" />
        </mxCell>
        <mxCell id="QkR3hnECUOmhi_xK6HSF-65" value="" style="rounded=0;whiteSpace=wrap;html=1;container=0;" parent="12l4u41IAlyLC1k91Qik-36" vertex="1">
          <mxGeometry x="215" y="460" width="100" height="70" as="geometry" />
        </mxCell>
        <mxCell id="QkR3hnECUOmhi_xK6HSF-66" value="" style="rounded=0;whiteSpace=wrap;html=1;container=0;" parent="12l4u41IAlyLC1k91Qik-36" vertex="1">
          <mxGeometry x="325" y="460" width="100" height="70" as="geometry" />
        </mxCell>
        <mxCell id="QkR3hnECUOmhi_xK6HSF-67" value="" style="rounded=0;whiteSpace=wrap;html=1;container=0;" parent="12l4u41IAlyLC1k91Qik-36" vertex="1">
          <mxGeometry x="435" y="460" width="100" height="70" as="geometry" />
        </mxCell>
        <mxCell id="QkR3hnECUOmhi_xK6HSF-68" value="" style="rounded=0;whiteSpace=wrap;html=1;container=0;" parent="12l4u41IAlyLC1k91Qik-36" vertex="1">
          <mxGeometry x="545" y="460" width="100" height="70" as="geometry" />
        </mxCell>
        <mxCell id="QkR3hnECUOmhi_xK6HSF-69" value="" style="rounded=0;whiteSpace=wrap;html=1;container=0;" parent="12l4u41IAlyLC1k91Qik-36" vertex="1">
          <mxGeometry x="120" y="445" width="70" height="100" as="geometry" />
        </mxCell>
        <mxCell id="QkR3hnECUOmhi_xK6HSF-70" value="" style="rounded=0;whiteSpace=wrap;html=1;container=0;" parent="12l4u41IAlyLC1k91Qik-36" vertex="1">
          <mxGeometry x="230" y="445" width="70" height="100" as="geometry" />
        </mxCell>
        <mxCell id="QkR3hnECUOmhi_xK6HSF-71" value="" style="rounded=0;whiteSpace=wrap;html=1;container=0;" parent="12l4u41IAlyLC1k91Qik-36" vertex="1">
          <mxGeometry x="340" y="445" width="70" height="100" as="geometry" />
        </mxCell>
        <mxCell id="QkR3hnECUOmhi_xK6HSF-72" value="" style="rounded=0;whiteSpace=wrap;html=1;container=0;" parent="12l4u41IAlyLC1k91Qik-36" vertex="1">
          <mxGeometry x="450" y="445" width="70" height="100" as="geometry" />
        </mxCell>
        <mxCell id="QkR3hnECUOmhi_xK6HSF-73" value="" style="rounded=0;whiteSpace=wrap;html=1;container=0;" parent="12l4u41IAlyLC1k91Qik-36" vertex="1">
          <mxGeometry x="560" y="445" width="70" height="100" as="geometry" />
        </mxCell>
        <mxCell id="QkR3hnECUOmhi_xK6HSF-74" value="" style="rounded=0;whiteSpace=wrap;html=1;container=0;" parent="12l4u41IAlyLC1k91Qik-36" vertex="1">
          <mxGeometry x="655" y="585" width="70" height="40" as="geometry" />
        </mxCell>
        <mxCell id="12l4u41IAlyLC1k91Qik-4" value="" style="group" vertex="1" connectable="0" parent="12l4u41IAlyLC1k91Qik-36">
          <mxGeometry y="665" width="750" height="175" as="geometry" />
        </mxCell>
        <mxCell id="QkR3hnECUOmhi_xK6HSF-9" value="" style="rounded=0;whiteSpace=wrap;html=1;container=0;" parent="12l4u41IAlyLC1k91Qik-4" vertex="1">
          <mxGeometry width="120" height="175" as="geometry" />
        </mxCell>
        <mxCell id="QkR3hnECUOmhi_xK6HSF-10" value="" style="rounded=0;whiteSpace=wrap;html=1;container=0;" parent="12l4u41IAlyLC1k91Qik-4" vertex="1">
          <mxGeometry x="70" width="120" height="175" as="geometry" />
        </mxCell>
        <mxCell id="QkR3hnECUOmhi_xK6HSF-11" value="" style="rounded=0;whiteSpace=wrap;html=1;container=0;" parent="12l4u41IAlyLC1k91Qik-4" vertex="1">
          <mxGeometry x="140" width="120" height="175" as="geometry" />
        </mxCell>
        <mxCell id="QkR3hnECUOmhi_xK6HSF-12" value="" style="rounded=0;whiteSpace=wrap;html=1;container=0;" parent="12l4u41IAlyLC1k91Qik-4" vertex="1">
          <mxGeometry x="210" width="120" height="175" as="geometry" />
        </mxCell>
        <mxCell id="QkR3hnECUOmhi_xK6HSF-13" value="" style="rounded=0;whiteSpace=wrap;html=1;container=0;" parent="12l4u41IAlyLC1k91Qik-4" vertex="1">
          <mxGeometry x="280" width="120" height="175" as="geometry" />
        </mxCell>
        <mxCell id="QkR3hnECUOmhi_xK6HSF-14" value="" style="rounded=0;whiteSpace=wrap;html=1;container=0;" parent="12l4u41IAlyLC1k91Qik-4" vertex="1">
          <mxGeometry x="350" width="120" height="175" as="geometry" />
        </mxCell>
        <mxCell id="QkR3hnECUOmhi_xK6HSF-15" value="" style="rounded=0;whiteSpace=wrap;html=1;container=0;" parent="12l4u41IAlyLC1k91Qik-4" vertex="1">
          <mxGeometry x="420" width="120" height="175" as="geometry" />
        </mxCell>
        <mxCell id="QkR3hnECUOmhi_xK6HSF-16" value="" style="rounded=0;whiteSpace=wrap;html=1;container=0;" parent="12l4u41IAlyLC1k91Qik-4" vertex="1">
          <mxGeometry x="490" width="120" height="175" as="geometry" />
        </mxCell>
        <mxCell id="QkR3hnECUOmhi_xK6HSF-17" value="" style="rounded=0;whiteSpace=wrap;html=1;container=0;" parent="12l4u41IAlyLC1k91Qik-4" vertex="1">
          <mxGeometry x="560" width="120" height="175" as="geometry" />
        </mxCell>
        <mxCell id="QkR3hnECUOmhi_xK6HSF-18" value="" style="rounded=0;whiteSpace=wrap;html=1;container=0;" parent="12l4u41IAlyLC1k91Qik-4" vertex="1">
          <mxGeometry x="630" width="120" height="175" as="geometry" />
        </mxCell>
        <mxCell id="12l4u41IAlyLC1k91Qik-25" value="" style="group" vertex="1" connectable="0" parent="12l4u41IAlyLC1k91Qik-36">
          <mxGeometry width="750" height="175" as="geometry" />
        </mxCell>
        <mxCell id="12l4u41IAlyLC1k91Qik-26" value="" style="rounded=0;whiteSpace=wrap;html=1;container=0;" vertex="1" parent="12l4u41IAlyLC1k91Qik-25">
          <mxGeometry width="120" height="175" as="geometry" />
        </mxCell>
        <mxCell id="12l4u41IAlyLC1k91Qik-27" value="" style="rounded=0;whiteSpace=wrap;html=1;container=0;" vertex="1" parent="12l4u41IAlyLC1k91Qik-25">
          <mxGeometry x="70" width="120" height="175" as="geometry" />
        </mxCell>
        <mxCell id="12l4u41IAlyLC1k91Qik-28" value="" style="rounded=0;whiteSpace=wrap;html=1;container=0;" vertex="1" parent="12l4u41IAlyLC1k91Qik-25">
          <mxGeometry x="140" width="120" height="175" as="geometry" />
        </mxCell>
        <mxCell id="12l4u41IAlyLC1k91Qik-29" value="" style="rounded=0;whiteSpace=wrap;html=1;container=0;" vertex="1" parent="12l4u41IAlyLC1k91Qik-25">
          <mxGeometry x="210" width="120" height="175" as="geometry" />
        </mxCell>
        <mxCell id="12l4u41IAlyLC1k91Qik-30" value="" style="rounded=0;whiteSpace=wrap;html=1;container=0;" vertex="1" parent="12l4u41IAlyLC1k91Qik-25">
          <mxGeometry x="280" width="120" height="175" as="geometry" />
        </mxCell>
        <mxCell id="12l4u41IAlyLC1k91Qik-31" value="" style="rounded=0;whiteSpace=wrap;html=1;container=0;" vertex="1" parent="12l4u41IAlyLC1k91Qik-25">
          <mxGeometry x="350" width="120" height="175" as="geometry" />
        </mxCell>
        <mxCell id="12l4u41IAlyLC1k91Qik-32" value="" style="rounded=0;whiteSpace=wrap;html=1;container=0;" vertex="1" parent="12l4u41IAlyLC1k91Qik-25">
          <mxGeometry x="420" width="120" height="175" as="geometry" />
        </mxCell>
        <mxCell id="12l4u41IAlyLC1k91Qik-33" value="" style="rounded=0;whiteSpace=wrap;html=1;container=0;" vertex="1" parent="12l4u41IAlyLC1k91Qik-25">
          <mxGeometry x="490" width="120" height="175" as="geometry" />
        </mxCell>
        <mxCell id="12l4u41IAlyLC1k91Qik-34" value="" style="rounded=0;whiteSpace=wrap;html=1;container=0;" vertex="1" parent="12l4u41IAlyLC1k91Qik-25">
          <mxGeometry x="560" width="120" height="175" as="geometry" />
        </mxCell>
        <mxCell id="12l4u41IAlyLC1k91Qik-35" value="" style="rounded=0;whiteSpace=wrap;html=1;container=0;" vertex="1" parent="12l4u41IAlyLC1k91Qik-25">
          <mxGeometry x="630" width="120" height="175" as="geometry" />
        </mxCell>
      </root>
    </mxGraphModel>
  </diagram>
</mxfile>
